<svg xmlns="http://www.w3.org/2000/svg" xmlns:xlink="http://www.w3.org/1999/xlink" version="1.1" width="500pt" height="500pt" viewBox="0 0 500 500">
<defs>
<clipPath id="clip_0">
<path transform="matrix(1,0,0,-1,0,500)" d="M0 500H500V0H0Z"/>
</clipPath>
</defs>
<g id="layer_1" data-name="">
<g clip-path="url(#clip_0)">
<path transform="matrix(1,0,0,-1,249.5493,445.5762)" d="M0 0C-108.091 0-196.027 87.939-196.027 196.027-196.027 304.114-108.091 392.054 0 392.054 108.087 392.054 196.023 304.114 196.023 196.027 196.023 87.939 108.087 0 0 0M0 430.576C-129.541 430.576-234.549 325.567-234.549 196.027-234.549 66.486-129.541-38.519 0-38.519 129.537-38.519 234.545 66.486 234.545 196.027 234.545 325.567 129.537 430.576 0 430.576" fill="#231f20"/>
<path transform="matrix(1,0,0,-1,369.6445,270.4072)" d="M0 0-31.18 20.858 0 41.715ZM-107.633-88.412V-30.279L-53.598 5.859-9.979-23.313ZM-120.095-8.628-164.179 20.858-120.095 50.344-76.015 20.858ZM-132.561-88.412-230.216-23.313-186.593 5.859-132.561-30.279ZM-240.194 41.715-209.011 20.858-240.194 0ZM-132.561 130.128V71.995L-186.593 35.849-230.216 65.03ZM-107.633 130.128-9.979 65.03-53.598 35.849-107.633 71.995ZM24.817 66.67C24.791 66.853 24.745 67.028 24.715 67.211 24.653 67.563 24.589 67.914 24.497 68.257 24.443 68.463 24.367 68.661 24.303 68.859 24.203 69.165 24.104 69.47 23.982 69.767 23.897 69.973 23.799 70.179 23.704 70.377 23.573 70.66 23.437 70.935 23.28 71.201 23.166 71.4 23.044 71.591 22.926 71.781 22.758 72.041 22.586 72.293 22.398 72.537 22.262 72.72 22.117 72.903 21.972 73.079 21.773 73.307 21.567 73.536 21.35 73.75 21.187 73.917 21.025 74.085 20.854 74.238 20.625 74.444 20.389 74.643 20.148 74.833 19.962 74.978 19.778 75.123 19.584 75.26 19.511 75.306 19.447 75.367 19.378 75.413L-113.184 163.787C-117.371 166.579-122.823 166.579-127.011 163.787L-259.572 75.413C-259.641 75.367-259.706 75.306-259.778 75.26-259.973 75.123-260.156 74.978-260.339 74.833-260.583 74.643-260.82 74.444-261.044 74.238-261.22 74.085-261.38 73.917-261.544 73.75-261.761 73.536-261.967 73.307-262.162 73.079-262.311 72.903-262.456 72.72-262.593 72.537-262.776 72.293-262.952 72.041-263.116 71.781-263.242 71.591-263.36 71.4-263.474 71.201-263.627 70.935-263.764 70.66-263.898 70.377-263.993 70.179-264.092 69.973-264.176 69.767-264.298 69.47-264.397 69.165-264.497 68.859-264.562 68.661-264.634 68.463-264.691 68.257-264.783 67.914-264.844 67.563-264.909 67.211-264.939 67.028-264.985 66.853-265.008 66.67-265.081 66.136-265.122 65.594-265.122 65.045V-23.329C-265.122-23.878-265.081-24.42-265.008-24.962-264.985-25.138-264.939-25.32-264.909-25.495-264.844-25.847-264.783-26.197-264.691-26.541-264.634-26.747-264.562-26.945-264.497-27.144-264.397-27.448-264.298-27.754-264.176-28.059-264.092-28.266-263.993-28.464-263.898-28.662-263.764-28.943-263.627-29.218-263.474-29.493-263.36-29.685-263.242-29.874-263.116-30.065-262.952-30.325-262.776-30.577-262.593-30.821-262.456-31.012-262.311-31.187-262.162-31.362-261.967-31.591-261.761-31.82-261.544-32.034-261.38-32.201-261.22-32.369-261.044-32.521-260.82-32.729-260.583-32.927-260.339-33.117-260.156-33.263-259.973-33.407-259.778-33.544-259.706-33.59-259.641-33.651-259.572-33.696L-127.011-122.071C-124.917-123.467-122.506-124.169-120.095-124.169-117.688-124.169-115.278-123.467-113.184-122.071L19.378-33.696C19.447-33.651 19.511-33.59 19.584-33.544 19.778-33.407 19.962-33.263 20.148-33.117 20.389-32.927 20.625-32.729 20.854-32.521 21.025-32.369 21.187-32.201 21.35-32.034 21.567-31.82 21.773-31.591 21.972-31.362 22.117-31.187 22.262-31.012 22.398-30.821 22.586-30.577 22.758-30.325 22.926-30.065 23.044-29.874 23.166-29.685 23.28-29.493 23.437-29.218 23.573-28.943 23.704-28.662 23.799-28.464 23.897-28.266 23.982-28.059 24.104-27.754 24.203-27.448 24.303-27.144 24.367-26.945 24.443-26.747 24.497-26.541 24.589-26.197 24.653-25.847 24.715-25.495 24.745-25.32 24.791-25.138 24.817-24.962 24.886-24.42 24.929-23.878 24.929-23.329V65.045C24.929 65.594 24.886 66.136 24.817 66.67" fill="#231f20"/>
</g>
</g>
</svg>
