<?xml version="1.0" standalone="no"?>
<!DOCTYPE svg PUBLIC "-//W3C//DTD SVG 20010904//EN"
 "http://www.w3.org/TR/2001/REC-SVG-20010904/DTD/svg10.dtd">
<svg version="1.0" xmlns="http://www.w3.org/2000/svg"
 width="295.000000pt" height="322.000000pt" viewBox="0 0 295.000000 322.000000"
 preserveAspectRatio="xMidYMid meet">

<g transform="translate(0.000000,322.000000) scale(0.100000,-0.100000)"
fill="#000000" stroke="none">
<path d="M1532 2634 c-49 -24 -92 -68 -92 -93 0 -20 -15 -11 -32 20 -21 36
-92 70 -160 77 -66 6 -144 -32 -178 -88 -18 -28 -36 -43 -62 -51 -59 -19 -138
-112 -138 -163 0 -12 -9 -11 -46 9 -52 27 -115 33 -133 11 -12 -14 -1 -20 79
-45 19 -6 46 -21 60 -32 l25 -20 -42 6 c-110 17 -212 -71 -200 -174 3 -29 0
-56 -9 -72 -26 -51 -35 -116 -23 -165 11 -42 39 -71 58 -60 4 3 14 -5 21 -18
10 -19 10 -52 1 -163 -6 -76 -14 -165 -16 -198 -2 -33 -9 -127 -15 -210 -6
-82 -15 -199 -21 -260 -5 -60 -9 -127 -9 -148 0 -44 -29 -28 295 -160 127 -52
321 -131 431 -176 111 -46 209 -81 217 -79 8 1 113 120 233 262 121 142 265
313 321 380 56 67 102 126 103 131 0 6 -15 35 -34 65 -19 30 -33 56 -31 58 2
2 17 -6 32 -18 32 -23 91 -28 135 -11 19 7 28 7 30 -1 7 -20 64 10 102 53 30
32 66 117 66 154 0 6 9 28 20 49 10 21 24 62 31 91 14 65 -7 148 -51 198 l-29
34 29 28 c38 37 41 70 5 61 -23 -6 -25 -4 -25 29 0 80 -43 139 -121 164 -35
11 -36 13 -30 49 4 20 6 43 5 50 -1 6 -2 26 -3 43 -2 45 -62 104 -97 95 -14
-4 -41 -1 -60 6 -31 11 -34 16 -34 53 -1 120 -92 195 -239 195 -41 0 -74 5
-86 14 -32 22 -125 46 -180 46 -35 0 -67 -8 -103 -26z m-242 -648 c16 -31 7
-56 -20 -56 -21 0 -27 30 -14 64 9 22 19 20 34 -8z m-110 -78 c-8 -4 -23 -7
-32 -7 -15 -1 -13 6 10 43 l27 44 5 -37 c4 -26 1 -38 -10 -43z m193 -59 c44
-31 90 -40 137 -27 21 6 27 2 40 -25 21 -46 76 -80 120 -74 19 2 43 7 52 11
12 6 21 0 32 -22 9 -17 31 -40 51 -52 22 -14 55 -54 92 -113 168 -271 233
-379 233 -386 0 -5 -42 -58 -92 -118 -51 -60 -187 -220 -301 -355 l-208 -246
-82 33 c-94 37 -472 191 -502 205 -11 5 -78 32 -150 61 -71 29 -132 53 -133
55 -3 2 9 193 39 574 5 69 12 170 15 225 8 147 5 140 71 154 32 7 99 24 148
37 50 13 136 35 192 48 92 21 104 22 115 8 26 -31 92 -72 115 -72 37 0 25 29
-25 63 -23 15 -42 33 -42 38 0 19 41 8 83 -22z m672 -372 l40 -12 -15 -32 -15
-33 -27 45 c-15 25 -26 45 -25 45 1 0 20 -6 42 -13z"/>
<path d="M1411 1685 c-61 -66 -111 -148 -111 -184 0 -13 15 -25 55 -41 30 -12
62 -20 70 -16 27 10 17 41 -20 59 -19 9 -35 22 -35 28 0 18 39 70 98 131 36
37 53 62 49 72 -12 31 -45 15 -106 -49z"/>
<path d="M1118 1694 c-42 -22 -51 -84 -13 -84 8 0 19 9 25 20 12 22 49 27 68
8 7 -7 12 -27 12 -45 0 -28 4 -33 24 -33 48 0 49 69 2 116 -38 38 -73 43 -118
18z"/>
<path d="M1593 1572 c-21 -3 -73 -54 -73 -72 0 -4 7 -13 15 -20 12 -10 20 -7
46 14 17 14 34 26 37 26 20 -1 35 -22 41 -56 8 -48 36 -58 51 -18 12 30 -1 84
-25 104 -18 15 -65 27 -92 22z"/>
<path d="M1063 1444 c-17 -45 60 -220 130 -292 87 -90 253 -126 371 -82 97 37
181 128 220 236 24 70 14 74 -109 38 -41 -12 -92 -17 -161 -17 -136 1 -229 27
-356 100 -63 37 -86 41 -95 17z m123 -98 c106 -51 175 -68 295 -73 69 -3 137
-1 169 6 29 6 55 9 58 7 9 -9 -40 -76 -83 -114 -52 -46 -100 -62 -183 -62
-135 0 -235 75 -297 223 -8 20 -14 37 -12 37 2 0 26 -11 53 -24z"/>
</g>
</svg>
